<svg width="84" height="16" viewBox="0 0 84 16" fill="none" xmlns="http://www.w3.org/2000/svg">
<g clip-path="url(#clip0_4006_2694)">
<g clip-path="url(#clip1_4006_2694)">
<path d="M14.8227 6.02944C14.7003 5.65097 14.3638 5.38241 13.9672 5.34729L10.2867 5.03001L8.84422 1.59885C8.69125 1.23058 8.33091 0.990356 7.93204 0.990356C7.53318 0.990356 7.17284 1.23058 7.01986 1.59885L5.58191 5.03001L1.89693 5.34955C1.4992 5.38241 1.16039 5.65097 1.03688 6.03057C0.913364 6.41017 1.03008 6.82717 1.33263 7.08779L4.12809 9.53085L3.29069 13.1592C3.20004 13.5467 3.35075 13.9512 3.67256 14.1858C3.99551 14.4204 4.4261 14.4385 4.76718 14.2334L7.92751 12.3116L11.0946 14.2334C11.4357 14.4385 11.8674 14.4204 12.1893 14.1858C12.5122 13.9512 12.6629 13.5467 12.5723 13.1592L11.7349 9.52745L14.5303 7.08779C14.8317 6.82604 14.9473 6.40904 14.8227 6.02944ZM13.8799 6.33878L11.0856 8.77731C10.808 9.01866 10.6867 9.39373 10.7706 9.75181L11.6102 13.3847L8.44536 11.464C8.13148 11.2725 7.73601 11.2725 7.421 11.464L4.25953 13.3847L5.09352 9.75407C5.17738 9.396 5.05613 9.02206 4.77964 8.78071L1.98305 6.34218V6.33765L5.66689 6.01811C6.0329 5.98638 6.35244 5.75408 6.49409 5.41414L7.93204 1.98865L9.37 5.41414C9.51164 5.75408 9.83119 5.98638 10.1972 6.01924L13.881 6.33765V6.34105L13.8799 6.33878Z" fill="white" fill-opacity="0.2"/>
</g>
<path fill-rule="evenodd" clip-rule="evenodd" d="M14.4976 5.55921C14.6497 5.68042 14.7628 5.84369 14.8228 6.02869C14.884 6.21444 14.8888 6.41413 14.8368 6.60263C14.7847 6.79114 14.6781 6.96005 14.5303 7.08811L11.9589 9.33187C11.8912 9.39088 11.8409 9.46716 11.8132 9.55255C11.7855 9.63794 11.7816 9.72924 11.8017 9.81671L12.5721 13.1581C12.6165 13.3479 12.6039 13.5466 12.5359 13.7294C12.4679 13.9121 12.3476 14.0707 12.1899 14.1854C12.0323 14.3001 11.8443 14.3658 11.6495 14.3743C11.4547 14.3827 11.2618 14.3335 11.0948 14.2328L8.18472 12.468C8.10722 12.421 8.01831 12.3961 7.92767 12.3961C7.83704 12.3961 7.74813 12.421 7.67063 12.468L4.76752 14.2328C4.60058 14.3334 4.40769 14.3826 4.21297 14.3742C4.01824 14.3658 3.83032 14.3001 3.67269 14.1855C3.51505 14.0709 3.3947 13.9123 3.32667 13.7297C3.25864 13.547 3.24595 13.3484 3.29019 13.1586L4.06108 9.82018C4.08129 9.73275 4.07739 9.64148 4.0498 9.55609C4.02221 9.47071 3.97197 9.39441 3.90442 9.33534L1.33247 7.08811C1.18453 6.9606 1.07754 6.79224 1.02493 6.60415C0.972322 6.41607 0.97643 6.21663 1.03674 6.03087C1.09706 5.84512 1.21089 5.68131 1.36396 5.56C1.51702 5.43869 1.7025 5.3653 1.89713 5.34902L5.2831 5.05603C5.37319 5.04822 5.45943 5.01591 5.53248 4.96261C5.60554 4.9093 5.66262 4.83703 5.69755 4.75362L7.01971 1.59917C7.09486 1.41921 7.22157 1.26549 7.38388 1.15738C7.5462 1.04926 7.73686 0.991577 7.93189 0.991577C8.12691 0.991577 8.31758 1.04926 8.47989 1.15738C8.64221 1.26549 8.76891 1.41921 8.84407 1.59917L10.1707 4.75412C10.2058 4.83734 10.2629 4.90941 10.3359 4.96253C10.409 5.01565 10.4952 5.04781 10.5851 5.05553L13.9671 5.34703C14.1609 5.36418 14.3454 5.43797 14.4976 5.55921ZM7.93189 1.98982L7.93288 1.99031V1.98932L7.93189 1.98982Z" fill="#FF541F"/>
<g clip-path="url(#clip2_4006_2694)">
<path d="M31.8188 6.02944C31.6964 5.65097 31.3598 5.38241 30.9632 5.34729L27.2828 5.03001L25.8403 1.59885C25.6873 1.23058 25.327 0.990356 24.9281 0.990356C24.5293 0.990356 24.1689 1.23058 24.016 1.59885L22.578 5.03001L18.893 5.34955C18.4953 5.38241 18.1565 5.65097 18.033 6.03057C17.9095 6.41017 18.0262 6.82717 18.3287 7.08779L21.1242 9.53085L20.2868 13.1592C20.1961 13.5467 20.3468 13.9512 20.6687 14.1858C20.9916 14.4204 21.4222 14.4385 21.7633 14.2334L24.9236 12.3116L28.0907 14.2334C28.4318 14.4385 28.8635 14.4204 29.1853 14.1858C29.5083 13.9512 29.659 13.5467 29.5684 13.1592L28.731 9.52745L31.5264 7.08779C31.8278 6.82604 31.9434 6.40904 31.8188 6.02944ZM30.876 6.33878L28.0817 8.77731C27.804 9.01866 27.6828 9.39373 27.7667 9.75181L28.6063 13.3847L25.4414 11.464C25.1276 11.2725 24.7321 11.2725 24.4171 11.464L21.2556 13.3847L22.0896 9.75407C22.1735 9.396 22.0522 9.02206 21.7757 8.78071L18.9791 6.34218V6.33765L22.663 6.01811C23.029 5.98638 23.3485 5.75408 23.4902 5.41414L24.9281 1.98865L26.3661 5.41414C26.5077 5.75408 26.8273 5.98638 27.1933 6.01924L30.8771 6.33765V6.34105L30.876 6.33878Z" fill="white" fill-opacity="0.2"/>
</g>
<path fill-rule="evenodd" clip-rule="evenodd" d="M31.4937 5.55926C31.6458 5.68047 31.7589 5.84373 31.8189 6.02874C31.8801 6.21449 31.8849 6.41417 31.8329 6.60268C31.7808 6.79119 31.6742 6.96009 31.5264 7.08815L28.955 9.33191C28.8873 9.39093 28.837 9.4672 28.8093 9.55259C28.7816 9.63798 28.7776 9.72929 28.7978 9.81676L29.5682 13.1581C29.6126 13.348 29.6 13.5467 29.532 13.7294C29.464 13.9122 29.3437 14.0708 29.186 14.1855C29.0283 14.3002 28.8404 14.3659 28.6456 14.3743C28.4508 14.3827 28.2578 14.3335 28.0909 14.2329L25.1808 12.468C25.1033 12.421 25.0144 12.3962 24.9238 12.3962C24.8331 12.3962 24.7442 12.421 24.6667 12.468L21.7636 14.2329C21.5967 14.3335 21.4038 14.3826 21.2091 14.3742C21.0143 14.3658 20.8264 14.3002 20.6688 14.1855C20.5111 14.0709 20.3908 13.9124 20.3228 13.7297C20.2547 13.5471 20.242 13.3484 20.2863 13.1586L21.0572 9.82023C21.0774 9.7328 21.0735 9.64153 21.0459 9.55614C21.0183 9.47075 20.9681 9.39446 20.9005 9.33538L18.3286 7.08815C18.1806 6.96065 18.0736 6.79229 18.021 6.6042C17.9684 6.41611 17.9725 6.21668 18.0328 6.03092C18.0932 5.84516 18.207 5.68135 18.36 5.56005C18.5131 5.43874 18.6986 5.36534 18.8932 5.34906L22.2792 5.05608C22.3693 5.04826 22.4555 5.01596 22.5286 4.96265C22.6016 4.90935 22.6587 4.83708 22.6936 4.75367L24.0158 1.59921C24.091 1.41925 24.2177 1.26554 24.38 1.15743C24.5423 1.04931 24.733 0.991623 24.928 0.991623C25.123 0.991623 25.3137 1.04931 25.476 1.15743C25.6383 1.26554 25.765 1.41925 25.8402 1.59921L27.1668 4.75416C27.2019 4.83739 27.259 4.90946 27.332 4.96258C27.4051 5.0157 27.4912 5.04786 27.5812 5.05558L30.9632 5.34708C31.157 5.36423 31.3415 5.43802 31.4937 5.55926ZM24.928 1.98986L24.929 1.99036V1.98937L24.928 1.98986Z" fill="#FF541F"/>
<g clip-path="url(#clip3_4006_2694)">
<path d="M48.8149 6.02944C48.6925 5.65097 48.3559 5.38241 47.9593 5.34729L44.2789 5.03001L42.8364 1.59885C42.6834 1.23058 42.3231 0.990356 41.9242 0.990356C41.5254 0.990356 41.165 1.23058 41.0121 1.59885L39.5741 5.03001L35.8891 5.34955C35.4914 5.38241 35.1526 5.65097 35.0291 6.03057C34.9056 6.41017 35.0223 6.82717 35.3248 7.08779L38.1203 9.53085L37.2829 13.1592C37.1922 13.5467 37.3429 13.9512 37.6648 14.1858C37.9877 14.4204 38.4183 14.4385 38.7594 14.2334L41.9197 12.3116L45.0868 14.2334C45.4279 14.4385 45.8596 14.4204 46.1814 14.1858C46.5044 13.9512 46.6551 13.5467 46.5644 13.1592L45.7271 9.52745L48.5225 7.08779C48.8239 6.82604 48.9395 6.40904 48.8149 6.02944ZM47.8721 6.33878L45.0778 8.77731C44.8001 9.01866 44.6789 9.39373 44.7627 9.75181L45.6024 13.3847L42.4375 11.464C42.1237 11.2725 41.7282 11.2725 41.4132 11.464L38.2517 13.3847L39.0857 9.75407C39.1696 9.396 39.0483 9.02206 38.7718 8.78071L35.9752 6.34218V6.33765L39.6591 6.01811C40.0251 5.98638 40.3446 5.75408 40.4863 5.41414L41.9242 1.98865L43.3622 5.41414C43.5038 5.75408 43.8234 5.98638 44.1894 6.01924L47.8732 6.33765V6.34105L47.8721 6.33878Z" fill="white" fill-opacity="0.2"/>
</g>
<path fill-rule="evenodd" clip-rule="evenodd" d="M48.4898 5.55921C48.6419 5.68042 48.755 5.84369 48.815 6.02869C48.8762 6.21444 48.881 6.41413 48.829 6.60263C48.7769 6.79114 48.6703 6.96005 48.5225 7.08811L45.951 9.33187C45.8834 9.39088 45.8331 9.46716 45.8054 9.55255C45.7777 9.63794 45.7737 9.72924 45.7939 9.81671L46.5643 13.1581C46.6087 13.3479 46.5961 13.5466 46.5281 13.7294C46.4601 13.9121 46.3398 14.0707 46.1821 14.1854C46.0244 14.3001 45.8365 14.3658 45.6417 14.3743C45.4469 14.3827 45.2539 14.3335 45.087 14.2328L42.1769 12.468C42.0994 12.421 42.0105 12.3961 41.9199 12.3961C41.8292 12.3961 41.7403 12.421 41.6628 12.468L38.7597 14.2328C38.5928 14.3334 38.3999 14.3826 38.2052 14.3742C38.0104 14.3658 37.8225 14.3001 37.6649 14.1855C37.5072 14.0709 37.3869 13.9123 37.3189 13.7297C37.2508 13.547 37.2381 13.3484 37.2824 13.1586L38.0533 9.82018C38.0735 9.73275 38.0696 9.64148 38.042 9.55609C38.0144 9.47071 37.9642 9.39441 37.8966 9.33534L35.3247 7.08811C35.1767 6.9606 35.0697 6.79224 35.0171 6.60415C34.9645 6.41607 34.9686 6.21663 35.0289 6.03087C35.0892 5.84512 35.2031 5.68131 35.3561 5.56C35.5092 5.43869 35.6947 5.3653 35.8893 5.34902L39.2753 5.05603C39.3654 5.04822 39.4516 5.01591 39.5247 4.96261C39.5977 4.9093 39.6548 4.83703 39.6897 4.75362L41.0119 1.59917C41.0871 1.41921 41.2138 1.26549 41.3761 1.15738C41.5384 1.04926 41.7291 0.991577 41.9241 0.991577C42.1191 0.991577 42.3098 1.04926 42.4721 1.15738C42.6344 1.26549 42.7611 1.41921 42.8363 1.59917L44.1629 4.75412C44.198 4.83734 44.2551 4.90941 44.3281 4.96253C44.4012 5.01565 44.4873 5.04781 44.5773 5.05553L47.9593 5.34703C48.1531 5.36418 48.3376 5.43797 48.4898 5.55921ZM41.9241 1.98982L41.9251 1.99031V1.98932L41.9241 1.98982Z" fill="#FF541F"/>
<g clip-path="url(#clip4_4006_2694)">
<path d="M65.8149 6.02957C65.6925 5.65111 65.3559 5.38255 64.9593 5.34742L61.2789 5.03014L59.8364 1.59899C59.6834 1.23072 59.3231 0.990494 58.9242 0.990494C58.5254 0.990494 58.165 1.23072 58.0121 1.59899L56.5741 5.03014L52.8891 5.34969C52.4914 5.38255 52.1526 5.65111 52.0291 6.03071C51.9056 6.41031 52.0223 6.82731 52.3248 7.08793L55.1203 9.53098L54.2829 13.1593C54.1922 13.5468 54.3429 13.9514 54.6648 14.1859C54.9877 14.4205 55.4183 14.4386 55.7594 14.2335L58.9197 12.3117L62.0868 14.2335C62.4279 14.4386 62.8596 14.4205 63.1814 14.1859C63.5044 13.9514 63.6551 13.5468 63.5644 13.1593L62.7271 9.52758L65.5225 7.08793C65.8239 6.82617 65.9395 6.40918 65.8149 6.02957ZM64.8721 6.33892L62.0778 8.77744C61.8001 9.0188 61.6789 9.39387 61.7627 9.75194L62.6024 13.3848L59.4375 11.4641C59.1237 11.2726 58.7282 11.2726 58.4132 11.4641L55.2517 13.3848L56.0857 9.75421C56.1696 9.39614 56.0483 9.0222 55.7718 8.78084L52.9752 6.34232V6.33779L56.6591 6.01824C57.0251 5.98652 57.3446 5.75422 57.4863 5.41428L58.9242 1.98879L60.3622 5.41428C60.5038 5.75422 60.8234 5.98651 61.1894 6.01938L64.8732 6.33779V6.34119L64.8721 6.33892Z" fill="white" fill-opacity="0.2"/>
</g>
<path fill-rule="evenodd" clip-rule="evenodd" d="M65.4898 5.55931C65.6419 5.68051 65.755 5.84378 65.815 6.02878C65.8762 6.21453 65.881 6.41422 65.829 6.60272C65.7769 6.79123 65.6703 6.96014 65.5225 7.0882L62.951 9.33196C62.8834 9.39098 62.8331 9.46725 62.8054 9.55264C62.7777 9.63803 62.7737 9.72933 62.7939 9.8168L63.5643 13.1582C63.6087 13.348 63.5961 13.5467 63.5281 13.7295C63.4601 13.9122 63.3398 14.0708 63.1821 14.1855C63.0244 14.3002 62.8365 14.3659 62.6417 14.3743C62.4469 14.3828 62.2539 14.3336 62.087 14.2329L59.1769 12.4681C59.0994 12.4211 59.0105 12.3962 58.9199 12.3962C58.8292 12.3962 58.7403 12.4211 58.6628 12.4681L55.7597 14.2329C55.5928 14.3335 55.3999 14.3827 55.2052 14.3743C55.0104 14.3658 54.8225 14.3002 54.6649 14.1856C54.5072 14.071 54.3869 13.9124 54.3189 13.7298C54.2508 13.5471 54.2381 13.3485 54.2824 13.1586L55.0533 9.82027C55.0735 9.73285 55.0696 9.64157 55.042 9.55619C55.0144 9.4708 54.9642 9.3945 54.8966 9.33543L52.3247 7.0882C52.1767 6.96069 52.0697 6.79233 52.0171 6.60425C51.9645 6.41616 51.9686 6.21673 52.0289 6.03097C52.0892 5.84521 52.2031 5.6814 52.3561 5.56009C52.5092 5.43879 52.6947 5.36539 52.8893 5.34911L56.2753 5.05612C56.3654 5.04831 56.4516 5.016 56.5247 4.9627C56.5977 4.9094 56.6548 4.83713 56.6897 4.75371L58.0119 1.59926C58.0871 1.4193 58.2138 1.26559 58.3761 1.15747C58.5384 1.04936 58.7291 0.991669 58.9241 0.991669C59.1191 0.991669 59.3098 1.04936 59.4721 1.15747C59.6344 1.26559 59.7611 1.4193 59.8363 1.59926L61.1629 4.75421C61.198 4.83744 61.2551 4.9095 61.3281 4.96262C61.4012 5.01574 61.4873 5.0479 61.5773 5.05562L64.9593 5.34713C65.1531 5.36428 65.3376 5.43807 65.4898 5.55931ZM58.9241 1.98991L58.9251 1.99041V1.98941L58.9241 1.98991Z" fill="#FF541F"/>
<g clip-path="url(#clip5_4006_2694)">
<path d="M82.8071 6.02944C82.6847 5.65097 82.3481 5.38241 81.9515 5.34729L78.2711 5.03001L76.8286 1.59885C76.6756 1.23058 76.3153 0.990356 75.9164 0.990356C75.5176 0.990356 75.1572 1.23058 75.0042 1.59885L73.5663 5.03001L69.8813 5.34955C69.4836 5.38241 69.1448 5.65097 69.0213 6.03057C68.8977 6.41017 69.0145 6.82717 69.317 7.08779L72.1125 9.53085L71.2751 13.1592C71.1844 13.5467 71.3351 13.9512 71.6569 14.1858C71.9799 14.4204 72.4105 14.4385 72.7516 14.2334L75.9119 12.3116L79.079 14.2334C79.4201 14.4385 79.8518 14.4204 80.1736 14.1858C80.4966 13.9512 80.6473 13.5467 80.5566 13.1592L79.7192 9.52745L82.5147 7.08779C82.8161 6.82604 82.9317 6.40904 82.8071 6.02944ZM81.8643 6.33878L79.0699 8.77731C78.7923 9.01866 78.6711 9.39373 78.7549 9.75181L79.5946 13.3847L76.4297 11.464C76.1159 11.2725 75.7204 11.2725 75.4054 11.464L72.2439 13.3847L73.0779 9.75407C73.1618 9.396 73.0405 9.02206 72.764 8.78071L69.9674 6.34218V6.33765L73.6513 6.01811C74.0173 5.98638 74.3368 5.75408 74.4785 5.41414L75.9164 1.98865L77.3544 5.41414C77.496 5.75408 77.8156 5.98638 78.1816 6.01924L81.8654 6.33765V6.34105L81.8643 6.33878Z" fill="white" fill-opacity="0.2"/>
</g>
<path fill-rule="evenodd" clip-rule="evenodd" d="M82.482 5.55921C82.6341 5.68042 82.7472 5.84369 82.8072 6.02869C82.8683 6.21444 82.8732 6.41413 82.8212 6.60263C82.7691 6.79114 82.6625 6.96005 82.5147 7.08811L79.9432 9.33187C79.8756 9.39088 79.8253 9.46716 79.7976 9.55255C79.7699 9.63794 79.7659 9.72924 79.7861 9.81671L80.5565 13.1581C80.6008 13.3479 80.5883 13.5466 80.5203 13.7294C80.4523 13.9121 80.332 14.0707 80.1743 14.1854C80.0166 14.3001 79.8287 14.3658 79.6339 14.3743C79.4391 14.3827 79.2461 14.3335 79.0791 14.2328L76.1691 12.468C76.0916 12.421 76.0027 12.3961 75.912 12.3961C75.8214 12.3961 75.7325 12.421 75.655 12.468L72.7519 14.2328C72.585 14.3334 72.3921 14.3826 72.1973 14.3742C72.0026 14.3658 71.8147 14.3001 71.6571 14.1855C71.4994 14.0709 71.3791 13.9123 71.311 13.7297C71.243 13.547 71.2303 13.3484 71.2746 13.1586L72.0455 9.82018C72.0657 9.73275 72.0618 9.64148 72.0342 9.55609C72.0066 9.47071 71.9563 9.39441 71.8888 9.33534L69.3168 7.08811C69.1689 6.9606 69.0619 6.79224 69.0093 6.60415C68.9567 6.41607 68.9608 6.21663 69.0211 6.03087C69.0814 5.84512 69.1953 5.68131 69.3483 5.56C69.5014 5.43869 69.6869 5.3653 69.8815 5.34902L73.2675 5.05603C73.3576 5.04822 73.4438 5.01591 73.5169 4.96261C73.5899 4.9093 73.647 4.83703 73.6819 4.75362L75.0041 1.59917C75.0792 1.41921 75.2059 1.26549 75.3683 1.15738C75.5306 1.04926 75.7212 0.991577 75.9163 0.991577C76.1113 0.991577 76.302 1.04926 76.4643 1.15738C76.6266 1.26549 76.7533 1.41921 76.8284 1.59917L78.1551 4.75412C78.1901 4.83734 78.2473 4.90941 78.3203 4.96253C78.3934 5.01565 78.4795 5.04781 78.5695 5.05553L81.9515 5.34703C82.1453 5.36418 82.3298 5.43797 82.482 5.55921ZM75.9163 1.98982L75.9173 1.99031V1.98932L75.9163 1.98982Z" fill="#FF541F"/>
</g>
<defs>
<clipPath id="clip0_4006_2694">
<rect width="83.8525" height="15.864" fill="white"/>
</clipPath>
<clipPath id="clip1_4006_2694">
<rect width="15.864" height="15.864" fill="white"/>
</clipPath>
<clipPath id="clip2_4006_2694">
<rect width="15.864" height="15.864" fill="white" transform="translate(16.9961)"/>
</clipPath>
<clipPath id="clip3_4006_2694">
<rect width="15.864" height="15.864" fill="white" transform="translate(33.9922)"/>
</clipPath>
<clipPath id="clip4_4006_2694">
<rect width="15.864" height="15.864" fill="white" transform="translate(50.9922 9.15527e-05)"/>
</clipPath>
<clipPath id="clip5_4006_2694">
<rect width="15.864" height="15.864" fill="white" transform="translate(67.9883)"/>
</clipPath>
</defs>
</svg>
