<svg width="31" height="31" viewBox="0 0 31 31" fill="none" xmlns="http://www.w3.org/2000/svg">
<rect x="0.477238" y="0.477238" width="29.5887" height="29.5887" rx="14.7944" stroke="#FF541F" stroke-width="0.954475"/>
<path d="M11.9917 21.2388C13.1385 21.2771 14.2813 21.0852 15.3526 20.6744C16.4239 20.2636 17.402 19.6422 18.2291 18.8469C19.0561 18.0517 19.7154 17.0987 20.1679 16.0443C20.6204 14.9899 20.857 13.8555 20.8636 12.7081C21.3891 12.0578 21.7793 11.309 22.0113 10.5057C22.0286 10.4422 22.0272 10.3751 22.0073 10.3124C21.9874 10.2497 21.9497 10.1941 21.8989 10.1523C21.8481 10.1105 21.7863 10.0843 21.7209 10.0768C21.6556 10.0694 21.5894 10.0809 21.5305 10.1102C21.2556 10.2425 20.946 10.2853 20.6455 10.2324C20.345 10.1795 20.0687 10.0337 19.8554 9.81548C19.5832 9.51736 19.2538 9.27691 18.887 9.10839C18.5201 8.93987 18.1231 8.8467 17.7196 8.83441C17.3161 8.82211 16.9142 8.89094 16.5377 9.03682C16.1613 9.18269 15.8179 9.40265 15.528 9.68364C15.1311 10.068 14.8404 10.5486 14.6841 11.0785C14.5279 11.6085 14.5114 12.1699 14.6362 12.7081C12.0382 12.8632 10.2546 11.6302 8.82763 9.93956C8.78477 9.89102 8.72869 9.856 8.66625 9.8388C8.60382 9.8216 8.53772 9.82295 8.47604 9.84268C8.41435 9.86242 8.35975 9.8997 8.3189 9.94995C8.27805 10.0002 8.25272 10.0613 8.246 10.1257C7.97416 11.6336 8.17026 13.1886 8.80795 14.5818C9.44564 15.9751 10.4944 17.1398 11.8134 17.9196C10.929 18.9338 9.68706 19.5673 8.34682 19.6877C8.27502 19.6996 8.20873 19.7337 8.15725 19.7852C8.10576 19.8366 8.07165 19.9029 8.05968 19.9746C8.04771 20.0464 8.0585 20.1202 8.09051 20.1855C8.12253 20.2509 8.17419 20.3046 8.23825 20.3392C9.40424 20.9219 10.6883 21.2296 11.9917 21.2388Z" fill="#FF541F"/>
</svg>
