<svg width="1402" height="1333" viewBox="0 0 1402 1333" fill="none" xmlns="http://www.w3.org/2000/svg">
<g style="mix-blend-mode:overlay">
<circle cx="230.073" cy="556.445" r="6.55421" transform="rotate(-76.2652 230.073 556.445)" fill="#FF541F"/>
</g>
<circle cx="352.879" cy="481.872" r="3.2788" transform="rotate(-76.2652 352.879 481.872)" fill="#FF541F"/>
<g style="mix-blend-mode:overlay">
<circle cx="123.109" cy="317.757" r="3.2788" transform="rotate(-76.2652 123.109 317.757)" fill="#FF541F"/>
</g>
<circle cx="706.144" cy="223.864" r="3.2788" transform="rotate(-76.2652 706.144 223.864)" fill="#FF541F"/>
<g style="mix-blend-mode:overlay">
<circle cx="555.492" cy="315.49" r="3.2788" transform="rotate(-76.2652 555.492 315.49)" fill="#FF541F"/>
</g>
<g style="mix-blend-mode:overlay">
<circle cx="394.205" cy="326.672" r="6.55421" transform="rotate(-76.2652 394.205 326.672)" fill="#FF541F"/>
</g>
<circle cx="247.897" cy="304.432" r="6.55421" transform="rotate(-76.2652 247.897 304.432)" fill="#FF541F"/>
<g style="mix-blend-mode:overlay">
<circle cx="505.684" cy="519.216" r="3.2788" transform="rotate(-76.2652 505.684 519.216)" fill="#FF541F"/>
</g>
<circle cx="402.266" cy="226.417" r="3.2788" transform="rotate(-76.2652 402.266 226.417)" fill="#FF541F"/>
<g style="mix-blend-mode:overlay">
<circle cx="250.441" cy="348.886" r="3.2788" transform="rotate(-76.2652 250.441 348.886)" fill="#FF541F"/>
</g>
<g style="mix-blend-mode:overlay">
<circle cx="630.596" cy="525.178" r="6.6449" transform="rotate(-9.69464 630.596 525.178)" fill="#FF541F"/>
</g>
<g style="mix-blend-mode:overlay">
<circle cx="749.501" cy="609.375" r="3.32417" transform="rotate(-9.69464 749.501 609.375)" fill="#FF541F"/>
</g>
<g style="mix-blend-mode:overlay">
<circle cx="809.529" cy="329.448" r="3.32417" transform="rotate(-9.69464 809.529 329.448)" fill="#FF541F"/>
</g>
<g style="mix-blend-mode:overlay">
<circle cx="1107.33" cy="494.3" r="3.32417" transform="rotate(-9.69464 1107.33 494.3)" fill="#FF541F"/>
</g>
<circle cx="985.947" cy="730.754" r="3.32417" transform="rotate(-9.69464 985.947 730.754)" fill="#FF541F"/>
<g style="mix-blend-mode:overlay">
<circle cx="910.506" cy="585.229" r="6.6449" transform="rotate(-9.69464 910.506 585.229)" fill="#FF541F"/>
</g>
<g style="mix-blend-mode:overlay">
<circle cx="1031.89" cy="348.764" r="6.6449" transform="rotate(-9.69464 1031.89 348.764)" fill="#FF541F"/>
</g>
<circle cx="1147.92" cy="672.74" r="6.6449" transform="rotate(-9.69464 1147.92 672.74)" fill="#FF541F"/>
<circle cx="776.337" cy="766.555" r="3.32417" transform="rotate(-9.69464 776.337 766.555)" fill="#FF541F"/>
<circle cx="929.06" cy="713.507" r="3.32417" transform="rotate(-9.69464 929.06 713.507)" fill="#FF541F"/>
<g style="mix-blend-mode:overlay">
<circle cx="975.665" cy="355.002" r="3.32417" transform="rotate(-9.69464 975.665 355.002)" fill="#FF541F"/>
</g>
<g style="mix-blend-mode:overlay">
<circle cx="831.904" cy="460.457" r="3.32417" transform="rotate(-9.69464 831.904 460.457)" fill="#FF541F"/>
</g>
<circle cx="1411.06" cy="1038.59" r="7.25133" transform="rotate(-71.272 1411.06 1038.59)" fill="#FF541F"/>
<circle cx="1299.94" cy="808.719" r="3.62754" transform="rotate(-71.272 1299.94 808.719)" fill="#FF541F"/>
<g style="mix-blend-mode:overlay">
<circle cx="630.838" cy="1133.7" r="4.02117" transform="rotate(-130.143 630.838 1133.7)" fill="#FF541F"/>
</g>
<g style="mix-blend-mode:overlay">
<circle cx="302.131" cy="1242.65" r="4.02117" transform="rotate(-130.143 302.131 1242.65)" fill="#FF541F"/>
</g>
<g style="mix-blend-mode:overlay">
<circle cx="291.479" cy="831.047" r="4.02117" transform="rotate(-130.143 291.479 831.047)" fill="#FF541F"/>
</g>
<g style="mix-blend-mode:overlay">
<circle cx="612.474" cy="812.69" r="4.02117" transform="rotate(-130.143 612.474 812.69)" fill="#FF541F"/>
</g>
<g style="mix-blend-mode:overlay">
<circle cx="506.952" cy="980.564" r="8.03819" transform="rotate(-130.143 506.952 980.564)" fill="#FF541F"/>
</g>
<circle cx="164.487" cy="887.508" r="8.03819" transform="rotate(-130.143 164.487 887.508)" fill="#FF541F"/>
<g style="mix-blend-mode:overlay">
<circle cx="472.788" cy="796.955" r="8.03819" transform="rotate(-130.143 472.788 796.955)" fill="#FF541F"/>
</g>
<g style="mix-blend-mode:overlay">
<circle cx="778.303" cy="1009.32" r="4.02117" transform="rotate(-130.143 778.303 1009.32)" fill="#FF541F"/>
</g>
<g style="mix-blend-mode:overlay">
<circle cx="629.365" cy="882.578" r="4.02117" transform="rotate(-130.143 629.365 882.578)" fill="#FF541F"/>
</g>
<circle cx="345.236" cy="999.314" r="4.02117" transform="rotate(-130.143 345.236 999.314)" fill="#FF541F"/>
<g style="mix-blend-mode:overlay">
<circle cx="425.018" cy="1139.02" r="4.02117" transform="rotate(-130.143 425.018 1139.02)" fill="#FF541F"/>
</g>
</svg>
